<svg xmlns="http://www.w3.org/2000/svg" version="1.1" xmlns:xlink="http://www.w3.org/1999/xlink" xmlns:svgjs="http://svgjs.dev/svgjs" width="1000" height="287" viewBox="0 0 1000 287"><g transform="matrix(1,0,0,1,-0.6060606025158108,0.5642028032106907)"><svg viewBox="0 0 396 114" data-background-color="#ffffff" preserveAspectRatio="xMidYMid meet" height="287" width="1000" xmlns="http://www.w3.org/2000/svg" xmlns:xlink="http://www.w3.org/1999/xlink"><g id="tight-bounds" transform="matrix(1,0,0,1,0.24000000140370048,-0.22410843054362317)"><svg viewBox="0 0 395.52 114.44821686108722" height="114.44821686108722" width="395.52"><g><svg viewBox="0 0 604.9438562305764 175.0473949399762" height="114.44821686108722" width="395.52"><g transform="matrix(1,0,0,1,0,51.11967790573732)"><svg viewBox="0 0 395.52 72.80803912850155" height="72.80803912850155" width="395.52"><g id="textblocktransform"><svg viewBox="0 0 395.52 72.80803912850155" height="72.80803912850155" width="395.52" id="textblock"><g><svg viewBox="0 0 395.52 72.80803912850155" height="72.80803912850155" width="395.52"><g transform="matrix(1,0,0,1,0,0)"><svg width="395.52" viewBox="0.8100000023841858 -40.43000030517578 219.61000061035156 40.43000030517578" height="72.80803912850155" data-palette-color="#001f3f"><g class="undefined-text-0" data-fill-palette-color="primary" id="text-0"><path d="M27.15-11.87L19.73-11.87 20.43-13.62 26.44-13.62 27.15-11.87ZM28.56-8.35L18.36-8.35 19.04-10.11 27.81-10.11 28.56-8.35ZM29.93-4.83L16.99-4.83 17.68-6.59 29.2-6.59 29.93-4.83ZM17.75-38.06L2.71 0 0.81 0 16.8-40.43 18.7-40.43 34.67 0 32.79 0 17.75-38.06ZM4.59 0L17.97-33.89 18.97-31.64 6.47 0 4.59 0ZM8.37 0L19.92-29.25 20.85-26.83 10.28 0 8.37 0ZM12.16 0L21.78-24.41 22.71-21.95 14.04 0 12.16 0ZM30.03-40.43L46.02 0 44.12 0 28.15-40.43 30.03-40.43ZM24.37-40.43L26.25-40.43 42.24 0 40.36 0 24.37-40.43ZM20.58-40.43L22.46-40.43 38.45 0 36.55 0 20.58-40.43ZM75.95-14.09L75.95-14.09Q75.95-15.04 75.38-15.36 74.8-15.67 73.7-15.67L73.7-15.67 62.38-15.67 62.38-17.43 73.7-17.43Q77.71-17.43 77.71-14.09L77.71-14.09Q77.71-12.21 76.61-11.38 75.51-10.55 73.7-10.55L73.7-10.55 62.38-10.55 62.38-12.3 73.7-12.3Q75.95-12.3 75.95-14.09ZM61.4-28.13L61.4 0 59.64 0 59.64-29.88 73.7-29.88Q75.36-29.88 76.54-28.87 77.71-27.86 77.71-26.34L77.71-26.34Q77.71-24.34 76.61-23.45 75.51-22.56 73.7-22.56L73.7-22.56 62.38-22.56 62.38-24.32 73.7-24.32Q75.95-24.32 75.95-26.34L75.95-26.34Q75.95-27.17 75.31-27.65 74.68-28.13 73.7-28.13L73.7-28.13 61.4-28.13ZM62.38-19.04L62.38-20.8 73.7-20.8Q76.12-20.8 77.79-22.25 79.47-23.71 79.47-26.34L79.47-26.34Q79.47-28.47 77.72-30.05 75.97-31.64 73.7-31.64L73.7-31.64 57.88-31.64 57.88 0 56.13 0 56.13-33.4 73.7-33.4Q76.71-33.4 78.96-31.29 81.22-29.17 81.22-26.34L81.22-26.34Q81.22-24.12 80.19-22.46 79.15-20.8 77.39-19.9L77.39-19.9Q81.22-18.53 81.22-14.33L81.22-14.33Q81.22-11.01 79.03-9.02 76.83-7.03 73.7-7.03L73.7-7.03 62.38-7.03 62.38-8.79 73.7-8.79Q76.12-8.79 77.79-10.24 79.47-11.69 79.47-14.33L79.47-14.33Q79.47-16.11 78.2-17.48 76.93-18.85 74.46-19.07L74.46-19.07Q74.22-19.04 73.7-19.04L73.7-19.04 62.38-19.04ZM84.74-26.34L84.74-26.34Q84.74-22.92 82.32-20.17L82.32-20.17Q84.74-17.48 84.74-14.33L84.74-14.33Q84.74-11.28 83.21-8.78 81.69-6.27 79.16-4.9 76.63-3.52 73.7-3.52L73.7-3.52 62.38-3.52 62.38-5.27 73.7-5.27Q77.51-5.27 80.25-7.82 82.98-10.38 82.98-14.33L82.98-14.33Q82.98-15.75 82.26-17.47 81.54-19.19 80.27-20.09L80.27-20.09Q82.98-22.63 82.98-26.34L82.98-26.34Q82.98-29.91 80.2-32.53 77.41-35.16 73.7-35.16L73.7-35.16 54.37-35.16 54.37 0 52.61 0 52.61-36.91 73.7-36.91Q76.61-36.91 79.16-35.49 81.71-34.06 83.23-31.6 84.74-29.15 84.74-26.34ZM84.32-20.07L84.32-20.07Q86.5-22.97 86.5-26.34L86.5-26.34Q86.5-29.64 84.75-32.48 83.01-35.33 80.05-37 77.1-38.67 73.7-38.67L73.7-38.67 50.85-38.67 50.85 0 49.09 0 49.09-40.43 73.7-40.43Q77.56-40.43 80.92-38.53 84.27-36.62 86.26-33.36 88.25-30.1 88.25-26.34L88.25-26.34Q88.25-22.75 86.23-20.04L86.23-20.04Q88.25-17.24 88.25-14.33L88.25-14.33Q88.25-11.06 87.08-8.34 85.91-5.62 83.92-3.81 81.93-2 79.29-1 76.66 0 73.7 0L73.7 0 62.38 0 62.38-1.76 73.7-1.76Q76.27-1.76 78.61-2.72 80.95-3.69 82.69-5.35 84.42-7.01 85.46-9.35 86.5-11.69 86.5-14.33L86.5-14.33Q86.5-15.5 85.95-17.15 85.4-18.8 84.32-20.07ZM130.88 0L130.88-40.43 132.64-40.43 132.64 0 130.88 0ZM92.21 0L92.21-40.43 93.96-40.43 93.96 0 92.21 0ZM127.36 0L127.36-40.43 129.12-40.43 129.12 0 127.36 0ZM123.85 0L123.85-40.43 125.61-40.43 125.61 0 123.85 0ZM120.33-24.63L120.33-40.43 122.09-40.43 122.09 0 120.33 0 120.33-15.84 104.51-15.84 104.51 0 102.75 0 102.75-40.43 104.51-40.43 104.51-24.63 120.33-24.63ZM99.24 0L99.24-40.43 101-40.43 101 0 99.24 0ZM95.72 0L95.72-40.43 97.48-40.43 97.48 0 95.72 0ZM104.51-17.6L120.33-17.6 120.33-19.36 104.51-19.36 104.51-17.6ZM104.51-21.12L120.33-21.12 120.33-22.88 104.51-22.88 104.51-21.12ZM162.15-11.87L154.73-11.87 155.44-13.62 161.44-13.62 162.15-11.87ZM163.57-8.35L153.36-8.35 154.05-10.11 162.81-10.11 163.57-8.35ZM164.93-4.83L151.99-4.83 152.68-6.59 164.2-6.59 164.93-4.83ZM152.75-38.06L137.71 0 135.81 0 151.8-40.43 153.7-40.43 169.67 0 167.79 0 152.75-38.06ZM139.59 0L152.97-33.89 153.97-31.64 141.47 0 139.59 0ZM143.38 0L154.92-29.25 155.85-26.83 145.28 0 143.38 0ZM147.16 0L156.78-24.41 157.71-21.95 149.04 0 147.16 0ZM165.03-40.43L181.02 0 179.12 0 163.15-40.43 165.03-40.43ZM159.37-40.43L161.25-40.43 177.24 0 175.36 0 159.37-40.43ZM155.58-40.43L157.46-40.43 173.45 0 171.55 0 155.58-40.43ZM187.95-40.43L197.62-20.34 196.74-18.41 186.2-40.43 187.95-40.43ZM191.47-40.43L199.38-24.19 198.48-22.27 189.71-40.43 191.47-40.43ZM194.99-40.43L201.14-28.03 200.26-26.1 193.23-40.43 194.99-40.43ZM198.92 0L198.92-13.62 211.64-40.43 213.39-40.43 200.67-13.62 200.67 0 198.92 0ZM202.43 0L202.43-13.62 215.15-40.43 216.91-40.43 204.19-13.62 204.19 0 202.43 0ZM205.95 0L205.95-13.62 218.67-40.43 220.42-40.43 207.7-13.62 207.7 0 205.95 0ZM184.44-40.43L196.28-15.48 208.12-40.43 209.88-40.43 197.16-13.62 197.16 0 195.4 0 195.4-13.62 182.68-40.43 184.44-40.43Z" fill="#001f3f" data-fill-palette-color="primary"></path></g></svg></g></svg></g></svg></g></svg></g><g transform="matrix(1,0,0,1,429.89646129060026,0)"><svg viewBox="0 0 175.0473949399762 175.0473949399762" height="175.0473949399762" width="175.0473949399762"><g><svg></svg></g><g id="icon-0"><svg viewBox="0 0 175.0473949399762 175.0473949399762" height="175.0473949399762" width="175.0473949399762"><g><path d="M0 87.524c0-48.338 39.186-87.524 87.524-87.524 48.338 0 87.524 39.186 87.523 87.524 0 48.338-39.186 87.524-87.523 87.523-48.338 0-87.524-39.186-87.524-87.523zM87.524 168.481c44.712 0 80.958-36.246 80.957-80.957 0-44.712-36.246-80.958-80.957-80.958-44.712 0-80.958 36.246-80.958 80.958 0 44.712 36.246 80.958 80.958 80.957z" data-fill-palette-color="accent" fill="#464fb4" stroke="transparent"></path></g><g transform="matrix(1,0,0,1,45.564299911879324,38.91984640230219)"><svg viewBox="0 0 83.91879511621754 97.2077021353718" height="97.2077021353718" width="83.91879511621754"><g><svg xmlns="http://www.w3.org/2000/svg" xmlns:xlink="http://www.w3.org/1999/xlink" version="1.1" x="0" y="0" viewBox="9.63800048828125 3.246999979019165 80.7239990234375 93.50699615478516" enable-background="new 0 0 100 100" xml:space="preserve" height="97.2077021353718" width="83.91879511621754" class="icon-s-0" data-fill-palette-color="accent" id="s-0"><g fill="#464fb4" data-fill-palette-color="accent"><g fill="#464fb4" data-fill-palette-color="accent"><polygon points="36.703,11.011 9.638,26.636 9.638,38.757 36.703,23.131 63.767,38.757 63.767,26.636   " fill="#464fb4" data-fill-palette-color="accent"></polygon></g><g fill="#464fb4" data-fill-palette-color="accent"><polygon points="63.298,89.092 36.233,73.467 36.233,61.348 63.298,76.973 90.362,61.348 90.362,73.467   " fill="#464fb4" data-fill-palette-color="accent"></polygon></g><g fill="#464fb4" data-fill-palette-color="accent"><polygon points="9.638,42.012 36.703,26.386 47.198,32.446 20.134,48.072 20.134,79.324 9.638,73.264   " fill="#464fb4" data-fill-palette-color="accent"></polygon></g><g fill="#464fb4" data-fill-palette-color="accent"><polygon points="77.083,18.872 50.018,3.247 39.522,9.307 66.586,24.932 66.586,56.184 77.083,50.124   " fill="#464fb4" data-fill-palette-color="accent"></polygon></g><g fill="#464fb4" data-fill-palette-color="accent"><polygon points="23.01,81.127 23.011,49.876 33.507,43.816 33.507,75.068 60.571,90.693 50.075,96.754   " fill="#464fb4" data-fill-palette-color="accent"></polygon></g><g fill="#464fb4" data-fill-palette-color="accent"><polygon points="90.362,58.092 90.362,26.84 79.866,20.78 79.866,52.031 52.802,67.658 63.298,73.719   " fill="#464fb4" data-fill-palette-color="accent"></polygon></g></g></svg></g></svg></g></svg></g></svg></g></svg></g><defs></defs></svg><rect width="395.52" height="114.44821686108722" fill="none" stroke="none" visibility="hidden"></rect></g></svg></g></svg>